<svg width="51" height="78" viewBox="0 0 51 78" fill="none" xmlns="http://www.w3.org/2000/svg">
<path fill-rule="evenodd" clip-rule="evenodd" d="M40.0441 0H40.87C46.2676 0 50.67 4.4024 50.67 9.8L50.6505 53.7635C50.1534 66.9784 39.1119 77.5418 25.5611 77.5418C12.0103 77.5418 0.968799 66.9784 0.471699 53.7635V51.2833C0.471699 50.1859 1.3611 49.2965 2.4584 49.2965C3.5054 49.2965 4.3631 50.1061 4.4396 51.1336V51.2833C4.4396 52.3939 5.3398 53.2941 6.4504 53.2941C7.561 53.2941 8.4612 52.3939 8.4612 51.2833V49.4172H8.4613V42.9564L8.4612 42.949L8.4613 42.9416V42.9351H8.46141C8.46911 41.831 9.3853 40.9382 10.5147 40.9382C11.644 40.9382 12.5602 41.831 12.5679 42.9351H12.5681V42.949V47.1295C12.5681 48.2985 13.5158 49.2462 14.6848 49.2462C15.8538 49.2462 16.8015 48.2985 16.8015 47.1295C16.8015 45.9957 17.7207 45.0765 18.8545 45.0765C19.9883 45.0765 20.9075 45.9957 20.9075 47.1295H20.9079V53.7635C21.1707 56.1008 23.1536 57.9175 25.5611 57.9175C27.9686 57.9175 29.9515 56.1008 30.2143 53.7635H30.2441V9.8C30.2441 4.4024 34.6465 0 40.0441 0V0ZM18.7064 41.441C20.007 41.441 21.0613 40.3867 21.0613 39.0861C21.0613 37.7855 20.007 36.7312 18.7064 36.7312C17.4058 36.7312 16.3515 37.7855 16.3515 39.0861C16.3515 40.3867 17.4058 41.441 18.7064 41.441ZM10.5573 37.3927C11.8579 37.3927 12.9122 36.3384 12.9122 35.0378C12.9122 33.7372 11.8579 32.6829 10.5573 32.6829C9.2567 32.6829 8.2024 33.7372 8.2024 35.0378C8.2024 36.3384 9.2567 37.3927 10.5573 37.3927ZM2.3549 45.5419C3.6555 45.5419 4.7098 44.4876 4.7098 43.187C4.7098 41.8864 3.6555 40.8321 2.3549 40.8321C1.0543 40.8321 0 41.8864 0 43.187C0 44.4876 1.0543 45.5419 2.3549 45.5419Z" fill="#F2623E"/>
</svg>
